HIERARCHY
ROOT Hips
{
	OFFSET -3.958830 18.904000 13.208200
	CHANNELS 6 Xposition Yposition Zposition Zrotation Yrotation Xrotation 
	JOINT LHipJoint
	{
		OFFSET 0.000000 0.000000 0.000000
		CHANNELS 3 Zrotation Yrotation Xrotation
		JOINT LeftUpLeg
		{
			OFFSET 1.800000 -1.400000 0.085000
			CHANNELS 3 Zrotation Yrotation Xrotation
			JOINT LeftLeg
			{
				OFFSET 2.215000 -6.000000 0.000000
				CHANNELS 3 Zrotation Yrotation Xrotation
				JOINT LeftFoot
				{
					OFFSET 2.500000 -6.900000 0.000000
					CHANNELS 3 Zrotation Yrotation Xrotation
					JOINT LeftToeBase
					{
						OFFSET 0.200000 -0.500000 1.950000
						CHANNELS 3 Zrotation Yrotation Xrotation
						End Site
						{
							OFFSET 0.000000 0.000000 0.000000
						}
					}
				}
			}
		}
	}
	JOINT RHipJoint
	{
		OFFSET 0.000000 0.000000 0.000000
		CHANNELS 3 Zrotation Yrotation Xrotation
		JOINT RightUpLeg
		{
			OFFSET -1.800000 -1.400000 0.085000
			CHANNELS 3 Zrotation Yrotation Xrotation
			JOINT RightLeg
			{
				OFFSET -2.215000 -6.000000 0.000000
				CHANNELS 3 Zrotation Yrotation Xrotation
				JOINT RightFoot
				{
					OFFSET -2.500000 -6.900000 0.000000
					CHANNELS 3 Zrotation Yrotation Xrotation
					JOINT RightToeBase
					{
						OFFSET -0.200000 -0.500000 1.950000
						CHANNELS 3 Zrotation Yrotation Xrotation
						End Site
						{
							OFFSET 0.000000 0.000000 0.000000
						}
					}
				}
			}
		}
	}
	JOINT LowerBack
	{
		OFFSET 0.000000 0.000000 0.000000
		CHANNELS 3 Zrotation Yrotation Xrotation
		JOINT Spine
		{
			OFFSET -0.087000 1.940000 -0.288900
			CHANNELS 3 Zrotation Yrotation Xrotation
			JOINT Spine1
			{
				OFFSET 0.000000 1.950000 0.060000
				CHANNELS 3 Zrotation Yrotation Xrotation
				JOINT Neck
				{
					OFFSET 0.000000 0.000000 0.000000
					CHANNELS 3 Zrotation Yrotation Xrotation
					JOINT Neck1
					{
						OFFSET 0.000000 1.600000 0.340000
						CHANNELS 3 Zrotation Yrotation Xrotation
						JOINT Head
						{
							OFFSET 0.000000 1.667000 -0.240000
							CHANNELS 3 Zrotation Yrotation Xrotation
							End Site
							{
								OFFSET 0.000000 0.000000 0.000000
							}
						}
					}
				}
				JOINT LeftShoulder
				{
					OFFSET 0.000000 0.000000 0.000000
					CHANNELS 3 Zrotation Yrotation Xrotation
					JOINT LeftArm
					{
						OFFSET 2.700000 1.550000 -0.730000
						CHANNELS 3 Zrotation Yrotation Xrotation
						JOINT LeftForeArm
						{
							OFFSET 5.450000 0.000000 0.000000
							CHANNELS 3 Zrotation Yrotation Xrotation
							JOINT LeftHand
							{
								OFFSET 3.450000 0.000000 0.000000
								CHANNELS 3 Zrotation Yrotation Xrotation
								JOINT LeftHandIndex1
								{
									OFFSET 0.750000 0.000000 0.000000
									CHANNELS 3 Zrotation Yrotation Xrotation
									End Site
									{
										OFFSET 0.000000 0.000000 0.000000
									}
								}
							}
						}
					}
				}
				JOINT RightShoulder
				{
					OFFSET 0.000000 0.000000 0.000000
					CHANNELS 3 Zrotation Yrotation Xrotation
					JOINT RightArm
					{
						OFFSET -2.700000 1.550000 -0.730000
						CHANNELS 3 Zrotation Yrotation Xrotation
						JOINT RightForeArm
						{
							OFFSET -5.450000 0.000000 0.000000
							CHANNELS 3 Zrotation Yrotation Xrotation
							JOINT RightHand
							{
								OFFSET -3.450000 0.000000 0.000000
								CHANNELS 3 Zrotation Yrotation Xrotation
								JOINT RightHandIndex1
								{
									OFFSET -0.750000 0.000000 0.000000
									CHANNELS 3 Zrotation Yrotation Xrotation
									End Site
									{
										OFFSET 0.000000 0.000000 0.000000
									}
								}
							}
						}
					}
				}
			}
		}
	}
}
MOTION
Frames: 7
Frame Time: 0.016667
-9.772430 16.055520 3.184290 -169.591832 28.596704 177.017892 -15.391713 12.460853 4.898897 0.202765 -9.263123 -34.359584 -5.961616 12.840137 49.756738 0.699284 9.293692 1.398918 0.190230 -0.329620 0.326580 18.017669 -10.384930 2.777703 -18.903608 3.496215 -29.934807 5.859921 -8.107627 30.785326 -0.381781 -4.586353 2.608899 -0.390750 0.220290 0.475710 -2.553690 -1.592389 -8.801138 5.615970 3.817657 24.245435 2.419409 7.597423 -19.500936 3.340723 1.548904 -7.922924 2.609654 -1.927047 38.628034 -0.855220 0.839060 -10.423810 -17.554750 8.975148 -2.271454 -57.572481 6.588263 -4.447213 8.834180 8.265343 0.964564 -3.980962 2.665632 0.824680 -0.023490 0.211420 0.177170 10.155665 -2.330405 3.194695 52.511779 -0.717581 -5.629009 -4.645330 1.320236 0.451187 2.719347 -1.083022 -0.130160 -0.034980 -0.020530 -0.141430 
-9.710250 16.031710 3.151280 -169.696130 26.231491 174.688251 -15.373201 12.512635 4.771476 0.037935 -9.279957 -32.303286 -4.706618 12.584369 51.648386 0.743110 9.467924 1.316801 0.323420 -0.123580 0.381070 18.014453 -10.490862 2.713232 -20.349416 2.309323 -28.901493 6.126055 -7.057130 24.563259 -0.312948 -3.855430 2.844409 -0.263450 0.164250 0.454140 -2.606752 -1.470949 -8.739562 5.315414 3.420026 24.077835 3.418468 6.648453 -13.868332 3.051775 1.318274 -8.890232 2.239406 -1.657612 39.782230 -0.156450 0.635450 -12.376640 -19.836173 1.897146 -0.581054 -58.415840 2.254896 -3.187137 8.010819 6.942883 0.603321 -3.872733 2.786977 0.804900 -0.054760 0.258710 0.212930 13.253869 4.552526 4.433807 50.802941 2.937881 -4.024482 -5.319260 -0.567245 0.574210 2.714626 -1.176115 -0.088950 -0.011840 -0.095070 -0.122260 
-9.607760 15.990170 3.093950 -169.839396 23.409678 171.563815 -15.370436 12.539323 4.476697 0.035834 -8.784915 -29.210967 -3.445629 12.674572 53.923907 0.730884 9.867183 1.149689 0.513340 0.128370 0.464900 18.050089 -10.603103 2.623473 -22.286197 1.006301 -30.316887 1.071882 -5.209778 21.046493 -0.298592 -3.285188 2.983366 -0.063220 0.144280 0.471070 -2.728385 -1.246512 -8.549736 4.853183 3.233305 23.136950 4.674758 5.048350 -3.599972 2.719341 1.352937 -10.161708 2.382054 -1.093314 38.290914 0.522800 0.751240 -15.339060 -21.241587 -8.663720 2.044867 -57.562452 -5.204848 -1.268048 7.445814 4.073192 -0.076375 -3.787878 2.965473 0.785960 -0.047230 0.285470 0.255880 15.927740 14.283322 6.234916 47.064916 9.523970 -1.957530 -5.575421 -1.074221 0.397487 2.629969 -1.313860 -0.065580 0.031840 -0.151280 -0.119460 
-9.502860 15.990520 3.041110 -169.363916 20.604490 168.070635 -15.319882 12.623896 4.044464 0.989049 -7.632902 -25.171926 -3.148760 12.984415 54.603718 0.630552 10.071902 1.016759 0.799500 0.523920 0.559790 18.129746 -10.711415 2.572642 -24.090347 -0.196403 -31.149154 -5.790755 -3.384271 17.249038 -0.396757 -2.955007 3.028565 0.231780 0.124040 0.487380 -2.997003 -1.123710 -8.321596 5.937860 2.613242 22.473552 5.654323 3.050930 9.268220 1.803680 -0.286284 -12.120911 -0.450256 0.339365 36.525094 2.633360 0.196530 -20.372170 -16.874035 -19.718847 4.546065 -56.716633 -15.734781 1.523345 8.837130 1.242054 -0.688058 -3.677672 3.140245 0.779710 -0.065110 0.352520 0.339810 14.182673 25.631312 8.934093 40.735657 17.712960 -0.310190 -7.411473 -0.705999 -0.031204 2.523913 -1.441934 -0.019820 0.135940 -0.230860 -0.084800 
-9.447630 16.030440 3.005990 -166.732604 19.298623 165.758792 -15.061499 12.606437 3.434717 3.500253 -5.540400 -21.070577 -2.130314 12.701654 53.820818 0.390454 9.937432 0.963321 1.061520 0.865940 0.675610 18.371855 -10.844221 2.979015 -24.894070 -0.108257 -32.834426 -11.132926 -2.149805 11.659607 -0.518680 -2.789278 3.000745 0.503680 0.070890 0.492610 -3.833717 -0.460917 -8.210123 12.905392 1.197680 21.569865 2.276081 1.789410 22.083656 2.484081 -2.267103 -15.704168 -4.065895 0.287316 36.064746 3.390030 -1.821770 -24.098930 -11.851143 -30.718918 6.836910 -46.831348 -23.628271 2.036395 13.462263 -3.889484 -2.183447 -3.575049 3.208620 0.790290 -0.103740 0.418300 0.381610 8.295367 36.584204 12.472103 31.495475 23.714430 0.252500 -9.738052 -0.368199 -0.550346 2.458665 -1.520674 0.017500 0.237380 -0.280180 -0.073430 
-9.334220 16.060320 2.994980 -165.720886 15.250983 165.015431 -15.095236 12.676201 3.230116 4.927533 -4.945154 -20.877001 -0.815824 12.521930 54.657385 0.202855 10.107936 0.895895 1.132110 0.945640 0.713350 18.389768 -10.618342 3.211698 -25.736919 0.705455 -36.995804 -22.822353 -0.022894 15.170566 -0.701311 -3.488436 2.753357 0.637220 0.114830 0.409560 -3.802267 -0.933226 -8.412897 14.165371 0.944776 22.152576 1.653247 1.252340 28.139153 2.609185 -3.431125 -19.194373 -6.498798 -0.903617 35.067343 4.538450 -3.911720 -26.766080 -8.079862 -35.148204 6.416236 -33.982040 -28.538454 0.234582 19.162989 -8.579347 -4.318149 -3.566438 3.068350 0.860470 -0.123720 0.397810 0.393470 4.447337 41.310755 14.462527 19.467449 26.088965 -1.934249 -13.315151 1.266342 -1.459413 2.431981 -1.479388 -0.089300 0.423090 -0.256920 -0.101180 
-9.237620 16.100570 2.970590 -163.685628 9.083768 164.364845 -15.099388 12.869732 2.989575 5.560969 -4.875401 -20.516147 2.901420 10.003006 54.586739 0.012413 9.618071 1.000120 1.242680 1.096390 0.740460 18.396197 -10.530885 3.322075 -28.367162 0.539895 -37.218046 -28.538526 0.943799 16.481410 -0.892760 -4.186433 2.485962 0.741070 0.072880 0.406450 -3.808323 -1.354067 -8.436395 16.339642 -0.368686 22.655841 0.536616 -0.382808 30.102874 3.260957 -3.797758 -19.605762 -7.643510 -2.018906 34.444696 5.699430 -5.285320 -29.513080 -3.699560 -35.749634 5.757597 -25.338659 -32.995297 -4.964946 30.161094 -13.918902 -8.734737 -3.480512 3.189631 0.880260 -0.167370 0.436740 0.416630 -1.395229 41.531034 13.723406 11.544529 26.565368 -8.359297 -22.069269 5.599922 -4.060024 2.332397 -1.765647 -0.062350 0.449600 -0.281270 -0.088330 
